#!OML:ASF F:\VICON\USERDATA\INSTALL\rory3\rory3.ASF
:FULLY-SPECIFIED
:DEGREES
1005
root -1.08647 17.9984 3.82536 -3.05432 50.1981 1.02407
lowerback 4.41446 12.237 7.6136
upperback -1.01948 16.7152 -3.80852
thorax -0.210231 8.38024 -8.33666
lowerneck -9.96369 -3.44 -7.61242
upperneck 15.0599 -4.54053 7.37758
head 6.55935 -1.99959 3.2336
rclavicle -1.226e-013 -1.59028e-015
rhumerus 13.4524 29.6309 -34.1569
rradius 88.2732
rwrist 22.2799
rhand -43.6814 14.3979
rfingers 7.12502
rthumb -16.5144 -14.9193
lclavicle -1.226e-013 -1.59028e-015
lhumerus -13.0456 -16.6321 20.3494
lradius 80.2901
lwrist -1.0082
lhand -27.1154 11.2791
lfingers 7.12502
lthumb -0.531516 41.2582
rfemur 14.7419 3.48078 20.1854
rtibia 19.8474
rfoot -41.371 -35.6409
rtoes 8.13613
lfemur -21.8711 -27.2721 -4.23977
ltibia 24.8112
lfoot -4.30051 -14.3785
ltoes -14.2886
1006
root -1.08379 17.9947 3.82867 -2.94443 50.6554 1.14186
lowerback 4.23465 12.4424 7.47773
upperback -0.849514 16.9659 -3.58893
thorax 0.00946637 8.51789 -7.96679
lowerneck -10.0771 -3.45675 -7.71273
upperneck 14.9078 -4.48677 7.07618
head 6.52273 -2.00387 3.15442
rclavicle 1.75179e-014 1.82882e-014
rhumerus 14.1527 30.0081 -33.8266
rradius 88.1919
rwrist 22.0178
rhand -43.6743 15.2593
rfingers 7.12502
rthumb -16.5076 -14.0584
lclavicle 1.75179e-014 1.82882e-014
lhumerus -14.1086 -15.6837 20.5717
lradius 80.3544
lwrist -1.12865
lhand -27.0135 11.347
lfingers 7.12502
lthumb -0.433092 41.3264
rfemur 14.7982 3.32396 20.1943
rtibia 19.8684
rfoot -41.7157 -35.7197
rtoes 8.24434
lfemur -22.1265 -27.3022 -4.33165
ltibia 24.9179
lfoot -4.11575 -14.801
ltoes -13.695
1007
root -1.0808 17.9873 3.82671 -2.85083 51.1366 1.20292
lowerback 4.14388 12.6511 7.34129
upperback -0.789216 17.2274 -3.33655
thorax 0.0534014 8.647 -7.60502
lowerneck -10.0412 -3.50772 -7.96917
upperneck 14.791 -4.49225 6.95142
head 6.48351 -2.0327 3.15517
rclavicle -4.82053e-014 -1.35174e-014
rhumerus 14.6647 30.517 -33.4572
rradius 88.2199
rwrist 22.0761
rhand -43.5039 15.9599
rfingers 7.12502
rthumb -16.3436 -13.3714
lclavicle -4.82053e-014 -1.35174e-014
lhumerus -15.1071 -14.9644 20.8155
lradius 80.2853
lwrist -1.32852
lhand -27.2837 10.9912
lfingers 7.12502
lthumb -0.694053 40.9698
rfemur 14.8111 3.18141 20.2325
rtibia 19.8932
rfoot -42.0499 -35.751
rtoes 8.70859
lfemur -22.4511 -27.251 -4.38843
ltibia 25.054
lfoot -3.73149 -15.1824
ltoes -12.5235
1008
root -1.07705 17.979 3.82376 -2.80498 51.621 1.16006
lowerback 4.09414 12.8093 7.3706
upperback -0.771687 17.4343 -3.15707
thorax 0.0878 8.74847 -7.41326
lowerneck -10.0624 -3.5418 -8.28202
upperneck 14.7075 -4.49593 7.03126
head 6.47036 -2.04598 3.23158
rclavicle 2.7159e-014 1.59028e-015
rhumerus 15.1167 31.0103 -33.1547
rradius 88.4534
rwrist 22.2367
rhand -43.54 16.1283
rfingers 7.12502
rthumb -16.3783 -13.2002
lclavicle 2.7159e-014 1.59028e-015
lhumerus -15.8779 -14.349 20.865
lradius 79.9568
lwrist -1.45735
lhand -27.6822 10.3084
lfingers 7.12502
lthumb -1.07899 40.2855
rfemur 14.7851 2.97068 20.3099
rtibia 19.9059
rfoot -42.3188 -35.7645
rtoes 9.27381
lfemur -22.8191 -27.157 -4.36291
ltibia 25.2005
lfoot -3.27722 -15.3909
ltoes -11.09
1009
root -1.07447 17.973 3.82515 -2.84058 52.0508 1.04602
lowerback 4.05963 12.928 7.44366
upperback -0.731527 17.5921 -3.03031
thorax 0.157525 8.8291 -7.29663
lowerneck -10.4048 -3.54486 -8.29557
upperneck 14.845 -4.46091 6.92315
head 6.5691 -2.03234 3.19901
rclavicle -7.58612e-014 7.95139e-016
rhumerus 15.7138 31.428 -33.0044
rradius 88.6164
rwrist 22.3167
rhand -43.1736 16.1463
rfingers 7.12502
rthumb -16.0256 -13.2109
lclavicle -7.58612e-014 7.95139e-016
lhumerus -16.7108 -13.5497 20.8228
lradius 79.7489
lwrist -1.67533
lhand -27.5686 10.0938
lfingers 7.12502
lthumb -0.96924 40.0713
rfemur 14.7869 2.71473 20.4285
rtibia 19.9294
rfoot -42.5556 -35.7553
rtoes 9.42673
lfemur -23.1247 -27.0708 -4.29202
ltibia 25.3402
lfoot -3.1104 -15.4153
ltoes -10.9208
1010
root -1.07069 17.9673 3.83096 -2.87713 52.4348 0.994293
lowerback 4.09358 13.0857 7.49239
upperback -0.72948 17.8066 -2.95595
thorax 0.169401 8.93567 -7.23938
lowerneck -10.8847 -3.55901 -8.00265
upperneck 15.1176 -4.45083 6.58902
head 6.72521 -2.02906 3.03915
rclavicle -4.17448e-014 1.59028e-015
rhumerus 16.0967 31.8567 -33.0861
rradius 88.6764
rwrist 22.384
rhand -42.6387 16.3818
rfingers 7.12502
rthumb -15.5104 -13.0161
lclavicle -4.17448e-014 1.59028e-015
lhumerus -17.5962 -12.8332 20.7432
lradius 79.7899
lwrist -1.98524
lhand -26.9109 10.2305
lfingers 7.12502
lthumb -0.334078 40.21
rfemur 14.8788 2.55566 20.5526
rtibia 19.9351
rfoot -42.8617 -35.7734
rtoes 9.67849
lfemur -23.333 -27.069 -4.26436
ltibia 25.4782
lfoot -3.09472 -15.1974
ltoes -11.2631
1011
root -1.06807 17.9609 3.83628 -2.89179 52.8211 1.00483
lowerback 4.12484 13.2978 7.51568
upperback -0.71963 18.0926 -2.89802
thorax 0.201003 9.07969 -7.17915
lowerneck -11.2501 -3.61306 -7.85289
upperneck 15.2251 -4.51691 6.50618
head 6.82332 -2.05294 2.97741
rclavicle 2.07481e-014 9.54166e-015
rhumerus 16.2638 32.1921 -33.2751
rradius 88.6915
rwrist 22.4941
rhand -42.4901 16.2589
rfingers 7.12502
rthumb -15.3672 -13.1501
lclavicle 2.07481e-014 9.54166e-015
lhumerus -18.2215 -12.2583 20.5774
lradius 79.7687
lwrist -2.28681
lhand -26.2521 10.311
lfingers 7.12502
lthumb 0.302251 40.2906
rfemur 14.9974 2.49596 20.6705
rtibia 19.9313
rfoot -43.2784 -35.8098
rtoes 9.91447
lfemur -23.4835 -27.0535 -4.27842
ltibia 25.5843
lfoot -3.09811 -14.8496
ltoes -11.7777
